<svg xmlns="http://www.w3.org/2000/svg" viewBox="0 0 874 212.75"><defs><style>.cls-1{fill:#0071bb;}.cls-2{fill:#bbbdbf;}.cls-3{fill:#929497;}.cls-4{fill:#fff;opacity:0.2;}</style></defs><g id="Layer_2" data-name="Layer 2"><g id="Layer_1-2" data-name="Layer 1"><path className="cls-1" d="M279.51,61.16l-13.29,74h-.36l-14.37-74H224v105h17v-74h.35l14.17,74h18.59l13.53-75H288v75h19v-105Z"/><path className="cls-1" d="M325,61.16v104h20v-104Z"/><path className="cls-1" d="M420,96.16v-10c0-16.55-10.08-26-29.5-26s-29.5,9.45-29.5,26V139.9c0,16.55,10.07,26,29.5,26s29.5-9.46,29.5-26V126.16H402v14.78c0,7.38-4.06,10.05-10.5,10.05S381,148.32,381,140.94V85.08c0-7.39,4.05-10.2,10.5-10.2S402,77.69,402,85.08V96.16Z"/><path className="cls-1" d="M495,152.49v-16.1c0-10.89-3.21-18.64-13-22.07v.17c8.84-3.43,13-10.29,13-21V85.09c0-16.06-8.79-23.93-29.23-23.93H436v104h20v-42h6.91c9.09,0,13.09,3.54,13.09,13.12v16.21c0,8.4.73,10,1.82,12.67h19.31C495.18,161.29,495,157.56,495,152.49ZM476,97.14c0,8.34-4.59,11-12.11,11H456v-32h9.72c7.16,0,10.28,3.28,10.28,10.72Z"/><path className="cls-1" d="M541,60.32c-19.4,0-30,9.5-30,26.12v54c0,16.62,10.6,26.13,30,26.13s30-9.51,30-26.13v-54C571,69.82,560.41,60.32,541,60.32Zm10,81.9c0,7.61-4,10.51-10.51,10.51S530,149.83,530,142.22V84.69c0-7.62,4-10.51,10.49-10.51S551,77.07,551,84.69Z"/><path className="cls-2" d="M618.55,74.16H604v78h14.55c8.79,0,13.45-4.44,13.45-12.84V87C632,78.6,627.34,74.16,618.55,74.16ZM625,139.42c0,5-1.83,6.74-7,6.74h-8v-66h8c5.13,0,7,1.76,7,6.73Zm-6.45-65.26H604v78h14.55c8.79,0,13.45-4.44,13.45-12.84V87C632,78.6,627.34,74.16,618.55,74.16ZM625,139.42c0,5-1.83,6.74-7,6.74h-8v-66h8c5.13,0,7,1.76,7,6.73Zm-6.45-65.26H604v78h14.55c8.79,0,13.45-4.44,13.45-12.84V87C632,78.6,627.34,74.16,618.55,74.16ZM625,139.42c0,5-1.83,6.74-7,6.74h-8v-66h8c5.13,0,7,1.76,7,6.73Zm-6.45-65.26H604v78h14.55c8.79,0,13.45-4.44,13.45-12.84V87C632,78.6,627.34,74.16,618.55,74.16ZM625,139.42c0,5-1.83,6.74-7,6.74h-8v-66h8c5.13,0,7,1.76,7,6.73Zm-6.45-65.26H604v78h14.55c8.79,0,13.45-4.44,13.45-12.84V87C632,78.6,627.34,74.16,618.55,74.16ZM625,139.42c0,5-1.83,6.74-7,6.74h-8v-66h8c5.13,0,7,1.76,7,6.73Zm-6.45-65.26H604v78h14.55c8.79,0,13.45-4.44,13.45-12.84V87C632,78.6,627.34,74.16,618.55,74.16ZM625,139.42c0,5-1.83,6.74-7,6.74h-8v-66h8c5.13,0,7,1.76,7,6.73Zm-6.45-65.26H604v78h14.55c8.79,0,13.45-4.44,13.45-12.84V87C632,78.6,627.34,74.16,618.55,74.16ZM625,139.42c0,5-1.83,6.74-7,6.74h-8v-66h8c5.13,0,7,1.76,7,6.73Zm-6.45-65.26H604v78h14.55c8.79,0,13.45-4.44,13.45-12.84V87C632,78.6,627.34,74.16,618.55,74.16ZM625,139.42c0,5-1.83,6.74-7,6.74h-8v-66h8c5.13,0,7,1.76,7,6.73Zm-6.45-65.26H604v78h14.55c8.79,0,13.45-4.44,13.45-12.84V87C632,78.6,627.34,74.16,618.55,74.16ZM625,139.42c0,5-1.83,6.74-7,6.74h-8v-66h8c5.13,0,7,1.76,7,6.73Zm-6.45-65.26H604v78h14.55c8.79,0,13.45-4.44,13.45-12.84V87C632,78.6,627.34,74.16,618.55,74.16ZM625,139.42c0,5-1.83,6.74-7,6.74h-8v-66h8c5.13,0,7,1.76,7,6.73Zm-6.6-79.26H584v107h34.4c21,0,32.6-9.95,32.6-28v-51C651,70.1,639.42,60.16,618.4,60.16ZM645,138.47c0,14.6-8.7,21.69-26.59,21.69H590v-94h28.41c17.89,0,26.59,7.09,26.59,21.69ZM618.55,74.16H604v78h14.55c8.79,0,13.45-4.44,13.45-12.84V87C632,78.6,627.34,74.16,618.55,74.16ZM625,139.42c0,5-1.83,6.74-7,6.74h-8v-66h8c5.13,0,7,1.76,7,6.73Zm-6.45-65.26H604v78h14.55c8.79,0,13.45-4.44,13.45-12.84V87C632,78.6,627.34,74.16,618.55,74.16ZM625,139.42c0,5-1.83,6.74-7,6.74h-8v-66h8c5.13,0,7,1.76,7,6.73Zm-6.45-65.26H604v78h14.55c8.79,0,13.45-4.44,13.45-12.84V87C632,78.6,627.34,74.16,618.55,74.16ZM625,139.42c0,5-1.83,6.74-7,6.74h-8v-66h8c5.13,0,7,1.76,7,6.73Zm-6.45-65.26H604v78h14.55c8.79,0,13.45-4.44,13.45-12.84V87C632,78.6,627.34,74.16,618.55,74.16ZM625,139.42c0,5-1.83,6.74-7,6.74h-8v-66h8c5.13,0,7,1.76,7,6.73Zm-6.45-65.26H604v78h14.55c8.79,0,13.45-4.44,13.45-12.84V87C632,78.6,627.34,74.16,618.55,74.16ZM625,139.42c0,5-1.83,6.74-7,6.74h-8v-66h8c5.13,0,7,1.76,7,6.73Zm-6.45-65.26H604v78h14.55c8.79,0,13.45-4.44,13.45-12.84V87C632,78.6,627.34,74.16,618.55,74.16ZM625,139.42c0,5-1.83,6.74-7,6.74h-8v-66h8c5.13,0,7,1.76,7,6.73Zm-6.45-65.26H604v78h14.55c8.79,0,13.45-4.44,13.45-12.84V87C632,78.6,627.34,74.16,618.55,74.16ZM625,139.42c0,5-1.83,6.74-7,6.74h-8v-66h8c5.13,0,7,1.76,7,6.73Zm-6.45-65.26H604v78h14.55c8.79,0,13.45-4.44,13.45-12.84V87C632,78.6,627.34,74.16,618.55,74.16ZM625,139.42c0,5-1.83,6.74-7,6.74h-8v-66h8c5.13,0,7,1.76,7,6.73Zm-6.45-65.26H604v78h14.55c8.79,0,13.45-4.44,13.45-12.84V87C632,78.6,627.34,74.16,618.55,74.16ZM625,139.42c0,5-1.83,6.74-7,6.74h-8v-66h8c5.13,0,7,1.76,7,6.73Z"/><path className="cls-2" d="M722,80.16v-20H661v107h61v-21H688v-23h27v-21H688v-22Zm-14,28v8H681v36h35v8H668v-94h48v8H681v34Z"/><polygon className="cls-2" points="838 167.16 812 167.16 812 81.16 757 81.16 757 104.16 783 104.16 783 125.16 757 125.16 757 167.16 731 167.16 731 60.16 874 60.16 874 66.16 738 66.16 738 160.16 751 160.16 751 119.16 777 119.16 777 111.16 751 111.16 751 74.16 818 74.16 818 160.16 832 160.16 832 74.16 874 74.16 874 81.16 838 81.16 838 167.16"/><polygon className="cls-3" points="0 160 0 54.67 93.27 0 186 53.63 186 144.42 164 131.01 164 65.17 93.34 23.2 21 65.52 21 147.61 94.1 189.56 156.01 154.25 175.4 167.4 94.38 212.75 0 160"/><polygon className="cls-1" points="42 77.17 42 137.62 63 148.01 63 91.84 81 80.34 81 157.64 93.72 166.21 94 166.01 94 47.28 42 77.17"/><polygon className="cls-1" points="106 80.26 124 90.91 124 148 145 136.88 145 77.03 94 47.42 94 165.77 106 157.13 106 80.26"/><polygon className="cls-4" points="106 80.26 124 90.91 124 148 145 136.88 145 77.03 94 47.42 94 165.77 106 157.13 106 80.26"/></g></g></svg>